<svg height="48pt" viewBox="0 0 48 48" width="48pt" xmlns="http://www.w3.org/2000/svg" xmlns:xlink="http://www.w3.org/1999/xlink"><linearGradient id="a" gradientTransform="matrix(40.44 0 0 17.21 3.78 26.19)" gradientUnits="userSpaceOnUse" x1="0" x2="1" y1=".5" y2=".5"><stop offset="0" stop-color="#ffe031"/><stop offset="1" stop-color="#fa0075"/></linearGradient><linearGradient id="b" gradientTransform="matrix(40.22 0 0 17.48 3.89 16.92)" gradientUnits="userSpaceOnUse" x1=".399802" x2=".365068" y1=".202422" y2="1.118531"><stop offset="0" stop-color="#43e97b"/><stop offset=".97826086957" stop-color="#38f9d7"/></linearGradient><linearGradient id="c" gradientTransform="matrix(40 0 0 21.21 4 2.62)" gradientUnits="userSpaceOnUse" x1="-.000038" x2=".999962" y1=".5" y2=".5"><stop offset="0" stop-color="#00c6ff"/><stop offset=".98695652174" stop-color="#0072ff"/></linearGradient><path d="m33.11 30.66-1.79-.89 1.78-3.58 1.79.89 6.645 3.312c1.482.738 1.521 2.01.087 2.838l-15.024 8.67c-1.434.828-3.762.828-5.196 0l-15.024-8.67c-1.434-.828-1.395-2.1.087-2.838l6.645-3.312 1.79-.89 1.78 3.58-1.79.89-1.775.884c-.494.246-.507.67-.029.945l10.048 5.792c.478.275 1.254.275 1.732 0l10.048-5.792c.478-.275.465-.699-.029-.945z" fill="url(#a)"/><path d="m33.05 21.39-1.76-.95 1.9-3.52 1.76.95 6.517 3.5c1.459.784 1.479 2.092.045 2.92l-14.914 8.61c-1.434.828-3.762.828-5.196 0l-14.914-8.61c-1.434-.828-1.414-2.136.045-2.92l6.517-3.5 1.76-.95 1.9 3.52-1.76.95-1.96 1.056c-.486.261-.492.698-.014.974l10.158 5.86c.478.276 1.254.276 1.732 0l10.158-5.86c.478-.276.472-.713-.014-.974z" fill="url(#b)"/><path d="m21 19.36c.955.552 1.282 1.777.73 2.735-.552.958-1.775 1.287-2.73.735l-12.402-7.16c-1.434-.828-1.434-2.172 0-3l14.804-8.55c1.434-.828 3.762-.828 5.196 0l14.804 8.55c1.434.828 1.434 2.172 0 3l-12.402 7.16c-.955.552-2.178.223-2.73-.735-.552-.958-.225-2.183.73-2.735l8.134-4.69c.478-.276.478-.724 0-1l-10.268-5.93c-.478-.276-1.254-.276-1.732 0l-10.268 5.93c-.478.276-.478.724 0 1z" fill="url(#c)"/></svg>